<svg width="3400" height="627" viewBox="0 0 3400 627" fill="none" xmlns="http://www.w3.org/2000/svg">
<path d="M521.004 419.276H580.033V340.905C580.033 293.81 607.748 280.508 633.663 280.508C638.342 280.508 642.661 280.868 648.78 281.587V231.976C643.021 230.538 638.342 230.178 634.383 230.178C605.948 230.178 588.311 249.232 581.113 278.711H580.033V232.335H521.004V419.276Z" fill="black"/>
<path d="M750.012 422.871C777.726 422.871 796.803 408.131 801.842 394.111V419.276H860.871V167.625H801.842V257.5C796.803 243.48 777.726 228.74 750.012 228.74C711.859 228.74 668.667 256.781 668.667 325.806C668.667 395.189 711.859 422.871 750.012 422.871ZM724.096 325.806C724.096 292.731 743.893 277.632 764.769 277.632C785.285 277.632 804.362 292.731 804.362 325.806C804.362 358.88 785.285 373.979 764.769 373.979C743.893 373.979 724.096 358.88 724.096 325.806Z" fill="black"/>
<path d="M994.893 422.871C1040.96 422.871 1074.44 399.144 1083.08 356.004H1031.25C1028.01 368.227 1020.09 378.293 995.973 378.293C972.937 378.293 958.54 367.867 955.3 340.545H1084.52C1085.24 336.231 1085.6 332.636 1085.6 325.806C1085.6 252.827 1043.12 228.74 994.893 228.74C944.862 228.74 899.51 255.343 899.51 325.087C899.51 397.706 948.461 422.871 994.893 422.871ZM955.66 306.393C959.259 284.822 971.497 273.318 993.453 273.318C1020.45 273.318 1028.73 290.215 1029.81 306.393H955.66Z" fill="black"/>
<path d="M1123.88 419.276H1182.91V340.905C1182.91 293.81 1210.62 280.508 1236.54 280.508C1241.22 280.508 1245.54 280.868 1251.65 281.587V231.976C1245.9 230.538 1241.22 230.178 1237.26 230.178C1208.82 230.178 1191.19 249.232 1183.99 278.711H1182.91V232.335H1123.88V419.276Z" fill="black"/>
<path d="M1286.17 419.276H1345.2V167.625H1286.17V419.276Z" fill="black"/>
<path d="M1396.59 442.284V491.895C1454.54 498.007 1478.65 478.594 1503.85 417.119L1579.43 232.335H1518.96L1477.93 344.14L1437.98 232.335H1377.87L1445.9 400.222C1450.58 411.367 1450.94 417.119 1446.98 426.106C1443.74 433.297 1435.46 447.317 1396.59 442.284Z" fill="black"/>
<path d="M1707.67 419.276H1767.78V269.004H1769.22L1859.93 419.276H1924.71V167.625H1864.24V321.851H1862.8L1769.94 167.625H1707.67V419.276Z" fill="black"/>
<path d="M2058.29 422.871C2104.36 422.871 2137.83 399.144 2146.47 356.004H2094.64C2091.4 368.227 2083.48 378.293 2059.37 378.293C2036.33 378.293 2021.93 367.867 2018.69 340.545H2147.91C2148.63 336.231 2148.99 332.636 2148.99 325.806C2148.99 252.827 2106.52 228.74 2058.29 228.74C2008.25 228.74 1962.9 255.343 1962.9 325.087C1962.9 397.706 2011.85 422.871 2058.29 422.871ZM2019.05 306.393C2022.65 284.822 2034.89 273.318 2056.85 273.318C2083.84 273.318 2092.12 290.215 2093.2 306.393H2019.05Z" fill="black"/>
<path d="M2272.94 421.792C2284.09 421.792 2294.89 420.354 2303.89 417.838V374.338C2295.61 375.057 2292.37 375.057 2288.41 375.057C2269.34 375.057 2265.74 364.632 2265.74 351.69V277.992H2302.45V232.335H2265.74V183.443H2206.71V232.335H2174.67V277.992H2206.71V359.958C2206.71 403.458 2232.62 421.792 2272.94 421.792Z" fill="black"/>
<path d="M2379.67 419.276H2446.25L2476.13 310.707L2506 419.276H2572.23L2621.18 232.335H2565.39L2536.24 362.475H2534.8L2501.32 232.335H2450.57L2417.1 362.475H2415.66L2386.51 232.335H2331.08L2379.67 419.276Z" fill="black"/>
<path d="M2734.7 422.871C2781.85 422.871 2829.72 394.47 2829.72 325.806C2829.72 257.141 2781.85 228.74 2734.7 228.74C2687.19 228.74 2639.68 257.141 2639.68 325.806C2639.68 394.47 2687.19 422.871 2734.7 422.871ZM2694.75 325.806C2694.75 292.731 2711.66 277.632 2734.7 277.632C2757.37 277.632 2774.29 292.731 2774.29 325.806C2774.29 358.88 2757.37 373.979 2734.7 373.979C2711.66 373.979 2694.75 358.88 2694.75 325.806Z" fill="black"/>
<path d="M2867.91 419.276H2926.94V340.905C2926.94 293.81 2954.65 280.508 2980.57 280.508C2985.25 280.508 2989.57 280.868 2995.69 281.587V231.976C2989.93 230.538 2985.25 230.178 2981.29 230.178C2952.85 230.178 2935.22 249.232 2928.02 278.711H2926.94V232.335H2867.91V419.276Z" fill="black"/>
<path d="M3030.2 419.276H3089.23V365.351L3103.99 349.533L3159.78 419.276H3224.57L3139.98 311.426L3214.85 232.335H3150.42L3089.23 302.079V167.625H3030.2V419.276Z" fill="black"/>
<path fill-rule="evenodd" clip-rule="evenodd" d="M329.338 147.352L330.038 147.352C366.975 147.437 400.718 161.1 426.531 183.608C428.36 185.203 427.202 188.13 424.774 188.13L234.603 188.13C232.175 188.13 231.016 185.203 232.845 183.608C258.658 161.1 292.401 147.437 329.338 147.352Z" fill="black"/>
<path fill-rule="evenodd" clip-rule="evenodd" d="M272.384 334.562C271.33 333.06 269.633 332.117 267.797 332.117L191.598 332.117C189.39 332.117 187.781 334.208 188.407 336.322C206.448 397.214 262.875 441.642 329.691 441.642C396.507 441.642 452.934 397.214 470.975 336.322C471.602 334.208 469.992 332.117 467.785 332.117L391.586 332.117C389.75 332.117 388.053 333.06 386.999 334.562C374.349 352.579 353.397 364.358 329.692 364.358C305.986 364.358 285.035 352.579 272.384 334.562Z" fill="black"/>
<path fill-rule="evenodd" clip-rule="evenodd" d="M385.165 251.933C386.512 253.683 388.564 254.78 390.773 254.78L467.143 254.78C469.371 254.78 470.984 252.656 470.32 250.531C464.548 232.091 455.242 215.21 443.193 200.681C442.19 199.472 440.692 198.789 439.119 198.789L220.249 198.789C218.677 198.789 217.179 199.472 216.176 200.681C204.126 215.21 194.82 232.091 189.049 250.531C188.384 252.656 189.997 254.78 192.225 254.78L268.595 254.78C270.805 254.78 272.856 253.683 274.203 251.933C286.99 235.324 307.086 224.62 329.684 224.62C352.283 224.62 372.378 235.324 385.165 251.933Z" fill="black"/>
<path fill-rule="evenodd" clip-rule="evenodd" d="M397.271 321.467C395.829 321.467 394.849 319.999 395.347 318.647C398.119 311.125 399.633 302.996 399.633 294.514C399.633 285.267 397.834 276.439 394.567 268.361C394.016 266.999 394.997 265.477 396.468 265.477L471.38 265.477C472.984 265.477 474.369 266.607 474.654 268.183C476.2 276.727 477.007 285.528 477.007 294.516C477.007 302.758 476.329 310.841 475.025 318.713C474.76 320.312 473.364 321.467 471.741 321.467L397.271 321.467ZM264.026 318.647C264.524 319.999 263.544 321.467 262.102 321.467L187.632 321.467C186.009 321.467 184.613 320.312 184.349 318.713C183.045 310.841 182.366 302.758 182.366 294.516C182.366 285.528 183.173 276.727 184.719 268.183C185.004 266.607 186.389 265.477 187.993 265.477L262.905 265.477C264.376 265.477 265.357 266.999 264.806 268.361C261.539 276.439 259.74 285.267 259.74 294.514C259.74 302.996 261.254 311.125 264.026 318.647Z" fill="black"/>
</svg>
